<svg xmlns="http://www.w3.org/2000/svg" xmlns:xlink="http://www.w3.org/1999/xlink" width="443.14" height="54" viewBox="0 0 443.14 54">
  <defs>
    <filter id="CARTON_CALCULATOR" x="0" y="0" width="378" height="54" filterUnits="userSpaceOnUse">
      <feOffset dy="3" input="SourceAlpha"/>
      <feGaussianBlur stdDeviation="3" result="blur"/>
      <feFlood flood-opacity="0.161"/>
      <feComposite operator="in" in2="blur"/>
      <feComposite in="SourceGraphic"/>
    </filter>
  </defs>
  <g id="Group_13" data-name="Group 13" transform="translate(-86 -31)">
    <g id="Component_1_1" data-name="Component 1 – 1" transform="translate(96 34.86)">
      <g transform="matrix(1, 0, 0, 1, -10, -3.86)" filter="url(#CARTON_CALCULATOR)" style="mix-blend-mode: darken;isolation: isolate">
        <text id="CARTON_CALCULATOR-2" data-name="CARTON CALCULATOR" transform="translate(189 35)" font-size="33" font-family="TimesNewRomanPSMT, Times New Roman"><tspan x="-179.462" y="0">CARTON CALCULATOR</tspan></text>
      </g>
      <g id="Group_3" data-name="Group 3" transform="translate(49 -32.86)">
        <g id="Rectangle_22" data-name="Rectangle 22" transform="matrix(0.883, -0.469, 0.469, 0.883, 322.771, 50.038)" fill="#fff" stroke="#0574e4" stroke-width="2">
          <rect width="24" height="24" stroke="none"/>
          <rect x="1" y="1" width="22" height="22" fill="none"/>
        </g>
        <g id="Rectangle_23" data-name="Rectangle 23" transform="matrix(0.891, -0.454, 0.454, 0.891, 351.86, 43.756)" fill="#fff" stroke="#0574e4" stroke-width="2">
          <rect width="24" height="24" stroke="none"/>
          <rect x="1" y="1" width="22" height="22" fill="none"/>
        </g>
        <line id="Line_1" data-name="Line 1" y1="7" x2="30" transform="translate(323.5 43.5)" fill="none" stroke="#0574e4" stroke-width="2"/>
        <line id="Line_2" data-name="Line 2" y1="6" x2="29" transform="translate(334.5 64.5)" fill="none" stroke="#0574e4" stroke-width="2"/>
        <line id="Line_3" data-name="Line 3" y1="6" x2="30" transform="translate(343.5 33.5)" fill="none" stroke="#0574e4" stroke-width="2"/>
        <line id="Line_4" data-name="Line 4" y1="6" x2="29" transform="translate(354.5 53.5)" fill="none" stroke="#0574e4" stroke-width="2"/>
      </g>
    </g>
  </g>
</svg>
